<svg xmlns="http://www.w3.org/2000/svg" xmlns:xlink="http://www.w3.org/1999/xlink" width="339.602" height="67.493" viewBox="0 0 339.602 67.493">
  <defs>
    <clipPath id="clip-path">
      <rect id="Rectangle_16" data-name="Rectangle 16" width="339.602" height="67.493" fill="none"/>
    </clipPath>
  </defs>
  <g id="Group_5" data-name="Group 5" clip-path="url(#clip-path)">
    <path id="Path_53" data-name="Path 53" d="M6.839,16.6,5.668,26.117H0L3.113.635h7.73a13.982,13.982,0,0,1,4,.5,7.591,7.591,0,0,1,2.7,1.373,5.19,5.19,0,0,1,1.53,2.073,6.906,6.906,0,0,1,.48,2.6,9.292,9.292,0,0,1-.375,2.675,8.366,8.366,0,0,1-1.093,2.317,8.22,8.22,0,0,1-1.758,1.871,9.47,9.47,0,0,1-2.369,1.339,5.559,5.559,0,0,1,.988.716,2.9,2.9,0,0,1,.726,1.05l3.708,8.973H14.236a2.4,2.4,0,0,1-1.206-.28,1.489,1.489,0,0,1-.682-.8L9.585,17.494a1.374,1.374,0,0,0-.516-.691,1.828,1.828,0,0,0-.953-.2ZM8.291,4.884l-.962,7.784H9.41a5.157,5.157,0,0,0,2.08-.377,3.757,3.757,0,0,0,1.391-1.007,3.864,3.864,0,0,0,.771-1.468,6.508,6.508,0,0,0,.236-1.767,3.847,3.847,0,0,0-.21-1.3,2.457,2.457,0,0,0-.657-1A3.06,3.06,0,0,0,11.9,5.113a4.944,4.944,0,0,0-1.583-.228Z" transform="translate(0 0.17)"/>
    <path id="Path_54" data-name="Path 54" d="M23.968,24.9a7.844,7.844,0,0,1-2.841-.507,6.494,6.494,0,0,1-2.293-1.478,6.807,6.807,0,0,1-1.521-2.4,9.078,9.078,0,0,1-.55-3.28,12.03,12.03,0,0,1,.795-4.433A11.188,11.188,0,0,1,19.7,9.321a9.765,9.765,0,0,1,3.121-2.292,8.792,8.792,0,0,1,3.733-.821,7.8,7.8,0,0,1,2.833.507,6.515,6.515,0,0,1,2.284,1.478,6.876,6.876,0,0,1,1.529,2.4,8.935,8.935,0,0,1,.559,3.28,11.876,11.876,0,0,1-.8,4.4,11.238,11.238,0,0,1-2.141,3.5,9.828,9.828,0,0,1-3.121,2.31,8.727,8.727,0,0,1-3.735.83m.491-4.022a2.6,2.6,0,0,0,1.625-.551,4.47,4.47,0,0,0,1.216-1.5,8.709,8.709,0,0,0,.769-2.222,12.931,12.931,0,0,0,.273-2.7,5.561,5.561,0,0,0-.535-2.824,1.9,1.9,0,0,0-1.741-.848,2.6,2.6,0,0,0-1.626.551,4.487,4.487,0,0,0-1.216,1.495,8.642,8.642,0,0,0-.769,2.221,13.009,13.009,0,0,0-.27,2.712,5.575,5.575,0,0,0,.532,2.807,1.89,1.89,0,0,0,1.742.866" transform="translate(4.487 1.662)"/>
    <path id="Path_55" data-name="Path 55" d="M38.234,24.9a7.846,7.846,0,0,1-2.842-.507A6.489,6.489,0,0,1,33.1,22.919a6.807,6.807,0,0,1-1.521-2.4,9.078,9.078,0,0,1-.55-3.28,12,12,0,0,1,.795-4.433,11.142,11.142,0,0,1,2.144-3.489,9.765,9.765,0,0,1,3.121-2.292,8.788,8.788,0,0,1,3.733-.821,7.8,7.8,0,0,1,2.833.507,6.51,6.51,0,0,1,2.283,1.478,6.9,6.9,0,0,1,1.53,2.4,8.935,8.935,0,0,1,.559,3.28,11.876,11.876,0,0,1-.8,4.4,11.241,11.241,0,0,1-2.142,3.5,9.814,9.814,0,0,1-3.121,2.31,8.721,8.721,0,0,1-3.733.83m.489-4.022a2.6,2.6,0,0,0,1.626-.551,4.485,4.485,0,0,0,1.216-1.5,8.757,8.757,0,0,0,.769-2.222,12.933,12.933,0,0,0,.271-2.7,5.563,5.563,0,0,0-.534-2.824,1.9,1.9,0,0,0-1.741-.848,2.6,2.6,0,0,0-1.626.551,4.486,4.486,0,0,0-1.216,1.495,8.594,8.594,0,0,0-.77,2.221,13.009,13.009,0,0,0-.27,2.712,5.575,5.575,0,0,0,.532,2.807,1.888,1.888,0,0,0,1.741.866" transform="translate(8.306 1.662)"/>
    <path id="Path_56" data-name="Path 56" d="M46.945,21.759v-.3c0-.117.009-.284.027-.5s.047-.5.087-.858.1-.824.166-1.407l.927-7.416H46.7a.773.773,0,0,1-.559-.218.87.87,0,0,1-.228-.657c0-.01.011-.113.036-.306s.046-.4.07-.612.047-.416.07-.6.035-.292.035-.314l.052-.472,2.746-.56,1.521-4.426a1.125,1.125,0,0,1,1.189-.839H54.57l-.664,5.3h4.057l-.454,3.707H53.451L52.576,18.4c-.058.479-.1.854-.131,1.128s-.053.484-.07.63-.029.245-.035.3a.918.918,0,0,0-.008.1,1.454,1.454,0,0,0,.236.848.84.84,0,0,0,.743.341,1.5,1.5,0,0,0,.464-.061,1.92,1.92,0,0,0,.323-.139c.093-.053.18-.1.262-.141a.618.618,0,0,1,.279-.061.523.523,0,0,1,.368.114,1.067,1.067,0,0,1,.228.359l1.189,2.57a8.107,8.107,0,0,1-2.326,1.18,8.2,8.2,0,0,1-2.5.394,5.782,5.782,0,0,1-1.889-.289,4.044,4.044,0,0,1-1.443-.839,3.9,3.9,0,0,1-.944-1.321,4.687,4.687,0,0,1-.376-1.748" transform="translate(12.291 0.61)"/>
    <path id="Path_57" data-name="Path 57" d="M71.416,10.94a5.239,5.239,0,0,1-.489,2.273,4.584,4.584,0,0,1-1.705,1.828A11.6,11.6,0,0,1,65.95,16.4a32.555,32.555,0,0,1-5.167.875,4.068,4.068,0,0,0,.813,2.71,2.952,2.952,0,0,0,2.3.857,5.552,5.552,0,0,0,1.242-.122,4.317,4.317,0,0,0,.918-.314,6.306,6.306,0,0,0,.709-.4l.6-.4a3.224,3.224,0,0,1,.6-.316,1.98,1.98,0,0,1,.718-.122,1.047,1.047,0,0,1,.507.132,1.633,1.633,0,0,1,.437.341l1.4,1.625a18.971,18.971,0,0,1-1.88,1.635,10.255,10.255,0,0,1-1.889,1.137,8.914,8.914,0,0,1-2.064.655,12.606,12.606,0,0,1-2.387.21,7.724,7.724,0,0,1-2.955-.551,6.662,6.662,0,0,1-2.317-1.557,6.966,6.966,0,0,1-1.5-2.421,8.862,8.862,0,0,1-.534-3.149,12.333,12.333,0,0,1,.325-2.833,11.954,11.954,0,0,1,.927-2.6A10.856,10.856,0,0,1,58.229,9.55,9.72,9.72,0,0,1,60.2,7.791a9.26,9.26,0,0,1,2.4-1.145,9.167,9.167,0,0,1,2.772-.411,7.353,7.353,0,0,1,2.579.42,6.046,6.046,0,0,1,1.9,1.093,4.724,4.724,0,0,1,1.173,1.512,3.868,3.868,0,0,1,.4,1.68M65.05,9.891a3.149,3.149,0,0,0-2.36,1.076,6.8,6.8,0,0,0-1.523,2.946,25.233,25.233,0,0,0,2.747-.551,6.835,6.835,0,0,0,1.625-.629A1.941,1.941,0,0,0,66.317,12a1.839,1.839,0,0,0,.2-.849,1.288,1.288,0,0,0-.35-.857,1.411,1.411,0,0,0-1.119-.4" transform="translate(14.858 1.67)"/>
    <path id="Path_58" data-name="Path 58" d="M81.539,26.264a2.414,2.414,0,0,1-.848-.131,1.355,1.355,0,0,1-.541-.359,1.262,1.262,0,0,1-.28-.543,2.767,2.767,0,0,1-.079-.682V23.029a10.26,10.26,0,0,1-2.746,2.58,5.959,5.959,0,0,1-3.2.936A5.19,5.19,0,0,1,71.8,26.15a4.053,4.053,0,0,1-1.6-1.232,6.1,6.1,0,0,1-1.05-2.142,11.346,11.346,0,0,1-.375-3.122,14.34,14.34,0,0,1,1.259-5.876,12.7,12.7,0,0,1,1.416-2.4A10.094,10.094,0,0,1,73.258,9.5a8.32,8.32,0,0,1,2.09-1.216,6.107,6.107,0,0,1,2.274-.437,5.193,5.193,0,0,1,2.019.377,5.535,5.535,0,0,1,1.582.988L82.379.083H87.7L84.443,26.264Zm-5.526-3.847A2.044,2.044,0,0,0,77.175,22a5.424,5.424,0,0,0,1.173-1.155,10.153,10.153,0,0,0,1.057-1.723,14.047,14.047,0,0,0,.84-2.125l.559-4.407a3.158,3.158,0,0,0-1.128-.577,4.355,4.355,0,0,0-1.18-.176,2.747,2.747,0,0,0-1.741.63,5.564,5.564,0,0,0-1.373,1.653,9.252,9.252,0,0,0-.9,2.334,11.148,11.148,0,0,0-.323,2.676,4.738,4.738,0,0,0,.507,2.51,1.545,1.545,0,0,0,1.346.778" transform="translate(18.411 0.023)"/>
    <path id="Path_59" data-name="Path 59" d="M97.1,8.15,94.928,26.287H89.577L91.745,8.15Zm1.014-4.967a2.721,2.721,0,0,1-.28,1.216,3.442,3.442,0,0,1-.734,1,3.566,3.566,0,0,1-1.041.682,2.974,2.974,0,0,1-1.2.254,2.791,2.791,0,0,1-1.171-.254A3.306,3.306,0,0,1,92.7,5.4a3.428,3.428,0,0,1-.691-1,2.867,2.867,0,0,1-.262-1.216,2.928,2.928,0,0,1,.262-1.225A3.346,3.346,0,0,1,92.716.944,3.5,3.5,0,0,1,93.721.254,2.82,2.82,0,0,1,94.893,0,3.064,3.064,0,0,1,96.1.246a3.312,3.312,0,0,1,1.023.681,3.474,3.474,0,0,1,.716,1.015,2.873,2.873,0,0,1,.271,1.241" transform="translate(23.981 0)"/>
    <path id="Path_60" data-name="Path 60" d="M107.348,24.624,108.712,13.1c.023-.186.041-.359.053-.516s.016-.306.016-.445a1.939,1.939,0,0,0-.323-1.285,1.239,1.239,0,0,0-.971-.359,2.5,2.5,0,0,0-1.241.368,4.848,4.848,0,0,0-1.233,1.032,7.835,7.835,0,0,0-1.075,1.616,9.468,9.468,0,0,0-.769,2.108l-1,9.007H96.75L98.918,6.487h2.8a1.988,1.988,0,0,1,1.311.394,1.582,1.582,0,0,1,.473,1.285V9.618a8.881,8.881,0,0,1,2.869-2.58,6.744,6.744,0,0,1,3.217-.83,4.62,4.62,0,0,1,1.862.368,4.01,4.01,0,0,1,1.46,1.075,5.151,5.151,0,0,1,.962,1.741,7.4,7.4,0,0,1,.35,2.378c0,.209-.009.426-.027.648s-.038.449-.061.681L112.77,24.624Z" transform="translate(25.901 1.662)"/>
    <path id="Path_61" data-name="Path 61" d="M118.533.635h4.478a1.886,1.886,0,0,1,1.18.341,1.359,1.359,0,0,1,.534.9l1.784,13.729c.046.327.081.662.105,1.007s.046.655.07.934q.034.508.034.98c.176-.548.359-1.064.551-1.548s.37-.942.534-1.373l5.212-13.729a2.015,2.015,0,0,1,.735-.857,2.116,2.116,0,0,1,1.259-.384h1.329a1.964,1.964,0,0,1,1.2.341,1.334,1.334,0,0,1,.551.9l1.959,13.729q.087.612.184,1.339t.166,1.512q.226-.787.455-1.5t.454-1.348l5.038-13.729a1.784,1.784,0,0,1,.742-.866A2.289,2.289,0,0,1,148.37.635h4.513l-10.39,25.482h-5.176l-2.344-16.091q-.053-.384-.122-.848c-.047-.308-.087-.633-.123-.97-.128.337-.254.662-.375.97s-.231.592-.323.848L127.8,26.117h-5.142Z" transform="translate(31.732 0.17)"/>
    <path id="Path_62" data-name="Path 62" d="M149.855,24.9a7.846,7.846,0,0,1-2.842-.507,6.5,6.5,0,0,1-2.292-1.478,6.825,6.825,0,0,1-1.521-2.4,9.079,9.079,0,0,1-.55-3.28,11.978,11.978,0,0,1,.8-4.433,11.116,11.116,0,0,1,2.142-3.489,9.765,9.765,0,0,1,3.121-2.292,8.788,8.788,0,0,1,3.733-.821,7.812,7.812,0,0,1,2.835.507,6.505,6.505,0,0,1,2.282,1.478,6.9,6.9,0,0,1,1.53,2.4,8.934,8.934,0,0,1,.56,3.28,11.9,11.9,0,0,1-.8,4.4,11.267,11.267,0,0,1-2.144,3.5,9.823,9.823,0,0,1-3.12,2.31,8.727,8.727,0,0,1-3.735.83m.489-4.022a2.6,2.6,0,0,0,1.626-.551,4.486,4.486,0,0,0,1.216-1.5,8.757,8.757,0,0,0,.769-2.222,12.932,12.932,0,0,0,.271-2.7,5.549,5.549,0,0,0-.534-2.824,1.9,1.9,0,0,0-1.739-.848,2.6,2.6,0,0,0-1.628.551,4.487,4.487,0,0,0-1.216,1.495,8.593,8.593,0,0,0-.768,2.221,12.921,12.921,0,0,0-.271,2.712,5.575,5.575,0,0,0,.532,2.807,1.888,1.888,0,0,0,1.741.866" transform="translate(38.189 1.662)"/>
    <path id="Path_63" data-name="Path 63" d="M156.969,24.587l2.2-18.137h2.8a1.991,1.991,0,0,1,1.312.394,1.582,1.582,0,0,1,.473,1.285v2.064a9.906,9.906,0,0,1,2.273-2.851,3.98,3.98,0,0,1,2.535-1,3.423,3.423,0,0,1,1.453.332l-.98,5.02a4.272,4.272,0,0,0-1.7-.385,3.083,3.083,0,0,0-2.387,1.216,9.5,9.5,0,0,0-1.689,3.908l-.98,8.15Z" transform="translate(42.022 1.699)"/>
    <path id="Path_64" data-name="Path 64" d="M179.919,10.3a2.054,2.054,0,0,1-.454.454.994.994,0,0,1-.56.141,1.628,1.628,0,0,1-.691-.157c-.227-.105-.473-.224-.735-.359a5.875,5.875,0,0,0-.891-.359,3.792,3.792,0,0,0-1.145-.157,2.563,2.563,0,0,0-1.724.464,1.539,1.539,0,0,0-.516,1.2,1.181,1.181,0,0,0,.289.8,2.79,2.79,0,0,0,.761.595,7.432,7.432,0,0,0,1.076.482q.6.219,1.233.489a11.674,11.674,0,0,1,1.232.621,4.637,4.637,0,0,1,1.076.857,3.965,3.965,0,0,1,.759,1.207,4.338,4.338,0,0,1,.289,1.661,6.266,6.266,0,0,1-.543,2.58,6.141,6.141,0,0,1-1.555,2.116,7.65,7.65,0,0,1-2.458,1.435,9.322,9.322,0,0,1-3.244.534,8.284,8.284,0,0,1-1.7-.175,9.307,9.307,0,0,1-1.582-.473,7.138,7.138,0,0,1-1.356-.709,4.514,4.514,0,0,1-1-.882l1.329-1.994a1.947,1.947,0,0,1,.568-.55,1.482,1.482,0,0,1,.8-.2,1.332,1.332,0,0,1,.753.209c.209.141.437.292.682.455a5.1,5.1,0,0,0,.875.455,3.531,3.531,0,0,0,1.329.209,2.461,2.461,0,0,0,1.714-.516,1.6,1.6,0,0,0,.559-1.214,1.359,1.359,0,0,0-.288-.892,2.5,2.5,0,0,0-.762-.6,7.017,7.017,0,0,0-1.066-.455q-.6-.2-1.223-.446a10.614,10.614,0,0,1-1.225-.568,4.384,4.384,0,0,1-1.067-.813,3.723,3.723,0,0,1-.761-1.208,4.629,4.629,0,0,1-.288-1.73,6.675,6.675,0,0,1,.463-2.448,6.07,6.07,0,0,1,1.382-2.108,6.86,6.86,0,0,1,2.283-1.478,8.343,8.343,0,0,1,3.182-.56,7.929,7.929,0,0,1,3.244.631,7.845,7.845,0,0,1,2.353,1.538Z" transform="translate(44.57 1.662)"/>
    <path id="Path_65" data-name="Path 65" d="M178.324,26.264,181.507.083h5.422l-1.278,10.423a8.438,8.438,0,0,1,2.625-2.012,6.642,6.642,0,0,1,2.85-.647,4.746,4.746,0,0,1,1.88.368,3.979,3.979,0,0,1,1.478,1.075,5.2,5.2,0,0,1,.962,1.741,7.431,7.431,0,0,1,.349,2.378c0,.209-.009.426-.025.648s-.039.449-.061.681l-1.364,11.526h-5.423l1.365-11.526c.023-.186.041-.359.053-.516s.017-.306.017-.445a1.972,1.972,0,0,0-.333-1.312,1.275,1.275,0,0,0-1-.368,2.367,2.367,0,0,0-1.136.325,4.5,4.5,0,0,0-1.146.918,7.9,7.9,0,0,0-1.032,1.434,9.109,9.109,0,0,0-.8,1.871l-1.171,9.619Z" transform="translate(47.739 0.023)"/>
    <path id="Path_66" data-name="Path 66" d="M201.3,8.15l-2.169,18.137h-5.351L195.945,8.15Zm1.014-4.967a2.7,2.7,0,0,1-.28,1.216,3.465,3.465,0,0,1-.734,1,3.532,3.532,0,0,1-1.041.682,2.978,2.978,0,0,1-1.2.254,2.791,2.791,0,0,1-1.171-.254A3.322,3.322,0,0,1,196.9,5.4a3.4,3.4,0,0,1-.69-1,2.868,2.868,0,0,1-.262-1.216,2.929,2.929,0,0,1,.262-1.225,3.343,3.343,0,0,1,.707-1.014A3.5,3.5,0,0,1,197.92.254,2.82,2.82,0,0,1,199.091,0,3.049,3.049,0,0,1,200.3.246a3.3,3.3,0,0,1,1.024.681,3.475,3.475,0,0,1,.716,1.015,2.873,2.873,0,0,1,.271,1.241" transform="translate(51.876 0)"/>
    <path id="Path_67" data-name="Path 67" d="M200.4,30.378l2.9-23.89h2.8a1.987,1.987,0,0,1,1.311.393,1.582,1.582,0,0,1,.473,1.285V9.811a10.286,10.286,0,0,1,2.764-2.641,5.974,5.974,0,0,1,3.252-.962,5.179,5.179,0,0,1,2.046.393,4.092,4.092,0,0,1,1.6,1.233,6.108,6.108,0,0,1,1.05,2.142,11.323,11.323,0,0,1,.375,3.1,13.977,13.977,0,0,1-.725,4.521,13.346,13.346,0,0,1-1.95,3.769,9.835,9.835,0,0,1-2.826,2.58,6.451,6.451,0,0,1-3.349.953,5.3,5.3,0,0,1-2.028-.368,5.384,5.384,0,0,1-1.573-.98l-.839,6.822Zm11.333-20.06a2.064,2.064,0,0,0-1.173.428,5.437,5.437,0,0,0-1.179,1.171,10.672,10.672,0,0,0-1.067,1.741,12.688,12.688,0,0,0-.832,2.134l-.541,4.372a3.176,3.176,0,0,0,1.127.578,4.407,4.407,0,0,0,1.182.174,2.742,2.742,0,0,0,1.739-.629,5.546,5.546,0,0,0,1.373-1.653,9.245,9.245,0,0,0,.9-2.335,11.142,11.142,0,0,0,.323-2.676,4.788,4.788,0,0,0-.507-2.518,1.541,1.541,0,0,0-1.346-.787" transform="translate(53.648 1.662)"/>
    <path id="Path_68" data-name="Path 68" d="M11.066,50.879a8.25,8.25,0,0,0,1.671-.148,5.936,5.936,0,0,0,1.214-.377,4.207,4.207,0,0,0,.858-.5c.232-.181.442-.347.629-.5a4.8,4.8,0,0,1,.525-.377,1.072,1.072,0,0,1,.989-.052.754.754,0,0,1,.27.218l1.994,2.4a10.959,10.959,0,0,1-3.944,3,12.55,12.55,0,0,1-5.185,1.023,10.2,10.2,0,0,1-4.277-.848,8.994,8.994,0,0,1-3.139-2.334A10.094,10.094,0,0,1,.74,48.859a14.278,14.278,0,0,1-.657-4.4,17.007,17.007,0,0,1,.491-4.145A15.555,15.555,0,0,1,1.955,36.7,14.031,14.031,0,0,1,4.1,33.7a13.2,13.2,0,0,1,9.7-4.18,11.746,11.746,0,0,1,2.615.271,9.436,9.436,0,0,1,2.134.752,7.979,7.979,0,0,1,1.705,1.146,8.3,8.3,0,0,1,1.312,1.468l-1.994,2.31a2.492,2.492,0,0,1-.489.436,1.267,1.267,0,0,1-.735.193,1.063,1.063,0,0,1-.541-.139,3.938,3.938,0,0,1-.5-.341q-.253-.2-.568-.446a3.836,3.836,0,0,0-.752-.446,5.569,5.569,0,0,0-1.041-.341,6.415,6.415,0,0,0-1.425-.139,6.735,6.735,0,0,0-3,.682A7.11,7.11,0,0,0,8.1,36.878a9.413,9.413,0,0,0-1.6,3.078,13.316,13.316,0,0,0-.577,4.049,9.886,9.886,0,0,0,.393,2.9,6.734,6.734,0,0,0,1.076,2.16,4.534,4.534,0,0,0,3.673,1.81" transform="translate(0.022 7.904)"/>
    <path id="Path_69" data-name="Path 69" d="M23.334,54.015a7.846,7.846,0,0,1-2.842-.507A6.489,6.489,0,0,1,18.2,52.03a6.807,6.807,0,0,1-1.521-2.4,9.078,9.078,0,0,1-.55-3.28,12,12,0,0,1,.795-4.433,11.162,11.162,0,0,1,2.144-3.49,9.761,9.761,0,0,1,3.121-2.291,8.788,8.788,0,0,1,3.733-.821,7.8,7.8,0,0,1,2.833.507A6.51,6.51,0,0,1,31.038,37.3a6.891,6.891,0,0,1,1.53,2.395,8.947,8.947,0,0,1,.559,3.281,11.876,11.876,0,0,1-.8,4.4,11.241,11.241,0,0,1-2.142,3.5,9.814,9.814,0,0,1-3.121,2.31,8.721,8.721,0,0,1-3.733.83m.489-4.022a2.6,2.6,0,0,0,1.626-.551,4.485,4.485,0,0,0,1.216-1.5,8.758,8.758,0,0,0,.77-2.222,12.934,12.934,0,0,0,.271-2.7,5.563,5.563,0,0,0-.534-2.824,1.9,1.9,0,0,0-1.741-.849,2.6,2.6,0,0,0-1.626.553,4.487,4.487,0,0,0-1.216,1.495,8.594,8.594,0,0,0-.77,2.221,13.009,13.009,0,0,0-.27,2.712,5.575,5.575,0,0,0,.532,2.807,1.888,1.888,0,0,0,1.741.866" transform="translate(4.318 9.456)"/>
    <path id="Path_70" data-name="Path 70" d="M41.046,53.735,42.41,42.209c.023-.186.041-.359.053-.516s.016-.306.016-.445a1.939,1.939,0,0,0-.323-1.285,1.239,1.239,0,0,0-.971-.359,2.5,2.5,0,0,0-1.241.368A4.849,4.849,0,0,0,38.711,41a7.835,7.835,0,0,0-1.075,1.616,9.468,9.468,0,0,0-.769,2.108l-1,9.007H30.448L32.616,35.6h2.8a1.988,1.988,0,0,1,1.311.394,1.582,1.582,0,0,1,.473,1.285v1.452a8.881,8.881,0,0,1,2.869-2.58,6.744,6.744,0,0,1,3.217-.83,4.62,4.62,0,0,1,1.862.368,4.01,4.01,0,0,1,1.46,1.075A5.151,5.151,0,0,1,47.57,38.5a7.4,7.4,0,0,1,.35,2.378c0,.209-.009.426-.027.648s-.038.449-.061.681L46.468,53.735Z" transform="translate(8.151 9.456)"/>
    <path id="Path_71" data-name="Path 71" d="M53.416,40.937,51.79,54.456,50.845,57.5a3.318,3.318,0,0,1-.962,1.573,2.717,2.717,0,0,1-1.836.56h-2.2L48.1,40.919l-1.067-.245a1.706,1.706,0,0,1-.761-.375.945.945,0,0,1-.306-.744.783.783,0,0,1,.018-.193l.279-2.134h2.292l.122-1.032a8.119,8.119,0,0,1,.857-2.816,7.365,7.365,0,0,1,1.7-2.151,7.538,7.538,0,0,1,2.388-1.382,8.57,8.57,0,0,1,2.93-.489,7.548,7.548,0,0,1,1.127.079,6.248,6.248,0,0,1,1.041.254l-.489,2.728a.723.723,0,0,1-.489.595,2.431,2.431,0,0,1-.8.141,3.078,3.078,0,0,0-2.142.716,3.906,3.906,0,0,0-1.005,2.5l-.105.857h3.673l-.489,3.708Z" transform="translate(12.273 7.86)"/>
    <path id="Path_72" data-name="Path 72" d="M70.781,40.05a5.239,5.239,0,0,1-.489,2.273,4.584,4.584,0,0,1-1.705,1.828,11.6,11.6,0,0,1-3.272,1.355,32.554,32.554,0,0,1-5.167.875,4.068,4.068,0,0,0,.813,2.71,2.952,2.952,0,0,0,2.3.857,5.552,5.552,0,0,0,1.242-.122,4.317,4.317,0,0,0,.918-.314,6.3,6.3,0,0,0,.709-.4l.6-.4a3.224,3.224,0,0,1,.6-.316,1.98,1.98,0,0,1,.718-.122,1.047,1.047,0,0,1,.507.132,1.633,1.633,0,0,1,.437.341l1.4,1.625A18.973,18.973,0,0,1,68.516,52a10.254,10.254,0,0,1-1.889,1.137,8.914,8.914,0,0,1-2.064.655,12.606,12.606,0,0,1-2.387.21,7.724,7.724,0,0,1-2.955-.551A6.662,6.662,0,0,1,56.9,51.9a6.967,6.967,0,0,1-1.5-2.421,8.863,8.863,0,0,1-.534-3.149,12.333,12.333,0,0,1,.325-2.833,11.955,11.955,0,0,1,.927-2.6,10.856,10.856,0,0,1,1.478-2.239A9.72,9.72,0,0,1,59.562,36.9a9.26,9.26,0,0,1,2.4-1.145,9.167,9.167,0,0,1,2.772-.411,7.353,7.353,0,0,1,2.579.42,6.046,6.046,0,0,1,1.9,1.093,4.724,4.724,0,0,1,1.173,1.512,3.868,3.868,0,0,1,.4,1.68M64.415,39a3.149,3.149,0,0,0-2.36,1.076,6.8,6.8,0,0,0-1.523,2.946,25.232,25.232,0,0,0,2.747-.551,6.835,6.835,0,0,0,1.625-.629,1.941,1.941,0,0,0,.778-.734,1.839,1.839,0,0,0,.2-.849,1.288,1.288,0,0,0-.35-.857,1.411,1.411,0,0,0-1.119-.4" transform="translate(14.688 9.463)"/>
    <path id="Path_73" data-name="Path 73" d="M68.137,53.7l2.2-18.137h2.8a1.988,1.988,0,0,1,1.311.394,1.582,1.582,0,0,1,.473,1.285V39.3A9.927,9.927,0,0,1,77.2,36.453a3.981,3.981,0,0,1,2.535-1,3.419,3.419,0,0,1,1.453.332l-.98,5.02a4.272,4.272,0,0,0-1.7-.385,3.083,3.083,0,0,0-2.387,1.216,9.5,9.5,0,0,0-1.689,3.908l-.979,8.15Z" transform="translate(18.241 9.493)"/>
    <path id="Path_74" data-name="Path 74" d="M93.931,40.05a5.239,5.239,0,0,1-.489,2.273,4.584,4.584,0,0,1-1.705,1.828,11.6,11.6,0,0,1-3.272,1.355,32.555,32.555,0,0,1-5.167.875,4.068,4.068,0,0,0,.813,2.71,2.952,2.952,0,0,0,2.3.857,5.552,5.552,0,0,0,1.242-.122,4.317,4.317,0,0,0,.918-.314,6.3,6.3,0,0,0,.709-.4l.6-.4a3.224,3.224,0,0,1,.6-.316,1.98,1.98,0,0,1,.718-.122,1.047,1.047,0,0,1,.507.132,1.633,1.633,0,0,1,.437.341l1.4,1.625A18.971,18.971,0,0,1,91.666,52a10.254,10.254,0,0,1-1.889,1.137,8.914,8.914,0,0,1-2.064.655,12.606,12.606,0,0,1-2.387.21,7.724,7.724,0,0,1-2.955-.551A6.662,6.662,0,0,1,80.053,51.9a6.967,6.967,0,0,1-1.5-2.421,8.863,8.863,0,0,1-.534-3.149,12.332,12.332,0,0,1,.325-2.833,11.954,11.954,0,0,1,.927-2.6,10.856,10.856,0,0,1,1.478-2.239A9.719,9.719,0,0,1,82.712,36.9a9.26,9.26,0,0,1,2.4-1.145,9.167,9.167,0,0,1,2.772-.411,7.353,7.353,0,0,1,2.579.42,6.046,6.046,0,0,1,1.9,1.093,4.725,4.725,0,0,1,1.173,1.512,3.868,3.868,0,0,1,.4,1.68M87.565,39a3.149,3.149,0,0,0-2.36,1.076,6.8,6.8,0,0,0-1.523,2.946,25.233,25.233,0,0,0,2.747-.551,6.835,6.835,0,0,0,1.625-.629,1.941,1.941,0,0,0,.778-.734,1.839,1.839,0,0,0,.2-.849,1.288,1.288,0,0,0-.35-.857,1.411,1.411,0,0,0-1.119-.4" transform="translate(20.885 9.463)"/>
    <path id="Path_75" data-name="Path 75" d="M101.885,53.735l1.364-11.526c.023-.186.041-.359.053-.516s.016-.306.016-.445A1.939,1.939,0,0,0,103,39.963a1.239,1.239,0,0,0-.971-.359,2.5,2.5,0,0,0-1.241.368A4.849,4.849,0,0,0,99.55,41a7.835,7.835,0,0,0-1.075,1.616,9.468,9.468,0,0,0-.77,2.108l-1,9.007H91.287L93.455,35.6h2.8a1.988,1.988,0,0,1,1.311.394,1.582,1.582,0,0,1,.473,1.285v1.452a8.881,8.881,0,0,1,2.869-2.58,6.744,6.744,0,0,1,3.217-.83,4.62,4.62,0,0,1,1.862.368,4.01,4.01,0,0,1,1.46,1.075,5.151,5.151,0,0,1,.962,1.741,7.4,7.4,0,0,1,.35,2.378c0,.209-.009.426-.027.648s-.038.449-.061.681l-1.364,11.526Z" transform="translate(24.438 9.456)"/>
    <path id="Path_76" data-name="Path 76" d="M119.1,52.171a7.843,7.843,0,0,1-1.662,1.067,7.581,7.581,0,0,1-1.827.586,11.624,11.624,0,0,1-2.142.184,7.279,7.279,0,0,1-2.869-.543,6.122,6.122,0,0,1-2.177-1.539,6.924,6.924,0,0,1-1.391-2.414,9.722,9.722,0,0,1-.489-3.183,12.255,12.255,0,0,1,.725-4.215,11.1,11.1,0,0,1,2.03-3.5,9.819,9.819,0,0,1,3.087-2.387,8.712,8.712,0,0,1,3.917-.882,7.219,7.219,0,0,1,3.122.62,6.565,6.565,0,0,1,2.335,1.95l-1.749,2.012a2.377,2.377,0,0,1-.437.341,1.026,1.026,0,0,1-.543.148,1.088,1.088,0,0,1-.587-.148q-.236-.148-.515-.314a4.226,4.226,0,0,0-.682-.316,3.1,3.1,0,0,0-1.05-.148,2.963,2.963,0,0,0-1.564.464,4.454,4.454,0,0,0-1.356,1.337,7.378,7.378,0,0,0-.953,2.151,10.788,10.788,0,0,0-.357,2.9,5.361,5.361,0,0,0,.209,1.583,3.252,3.252,0,0,0,.578,1.119,2.443,2.443,0,0,0,.856.673,2.472,2.472,0,0,0,1.05.227,3.291,3.291,0,0,0,1.355-.236,5.3,5.3,0,0,0,.9-.516q.386-.28.719-.516a1.351,1.351,0,0,1,.8-.236,1.184,1.184,0,0,1,.516.122,1.275,1.275,0,0,1,.428.332l1.4,1.644a16.48,16.48,0,0,1-1.678,1.626" transform="translate(28.523 9.463)"/>
    <path id="Path_77" data-name="Path 77" d="M134.544,40.05a5.239,5.239,0,0,1-.488,2.273,4.579,4.579,0,0,1-1.706,1.828,11.59,11.59,0,0,1-3.271,1.355,32.554,32.554,0,0,1-5.167.875,4.068,4.068,0,0,0,.813,2.71,2.95,2.95,0,0,0,2.3.857,5.533,5.533,0,0,0,1.241-.122,4.3,4.3,0,0,0,.919-.314,6.3,6.3,0,0,0,.709-.4l.6-.4a3.185,3.185,0,0,1,.6-.316,1.978,1.978,0,0,1,.716-.122,1.048,1.048,0,0,1,.508.132,1.607,1.607,0,0,1,.436.341l1.4,1.625A18.973,18.973,0,0,1,132.28,52a10.256,10.256,0,0,1-1.889,1.137,8.953,8.953,0,0,1-2.064.655,12.615,12.615,0,0,1-2.387.21,7.73,7.73,0,0,1-2.956-.551,6.685,6.685,0,0,1-2.317-1.557,6.982,6.982,0,0,1-1.5-2.421,8.862,8.862,0,0,1-.534-3.149,12.332,12.332,0,0,1,.325-2.833,11.954,11.954,0,0,1,.927-2.6,10.85,10.85,0,0,1,1.477-2.239,9.727,9.727,0,0,1,1.969-1.758,9.172,9.172,0,0,1,5.167-1.555,7.361,7.361,0,0,1,2.58.42,6.046,6.046,0,0,1,1.9,1.093,4.72,4.72,0,0,1,1.171,1.512,3.851,3.851,0,0,1,.4,1.68M128.179,39a3.149,3.149,0,0,0-2.36,1.076,6.8,6.8,0,0,0-1.523,2.946,25.3,25.3,0,0,0,2.747-.551,6.835,6.835,0,0,0,1.625-.629,1.95,1.95,0,0,0,.778-.734,1.855,1.855,0,0,0,.2-.849,1.3,1.3,0,0,0-.35-.857,1.415,1.415,0,0,0-1.119-.4" transform="translate(31.758 9.463)"/>
    <path id="Path_78" data-name="Path 78" d="M148.416,50.879a8.249,8.249,0,0,0,1.671-.148,5.936,5.936,0,0,0,1.214-.377,4.207,4.207,0,0,0,.858-.5q.35-.272.629-.5a4.915,4.915,0,0,1,.525-.377,1.072,1.072,0,0,1,.989-.052.743.743,0,0,1,.27.218l2,2.4a10.964,10.964,0,0,1-3.945,3,12.546,12.546,0,0,1-5.185,1.023,10.206,10.206,0,0,1-4.277-.848,9.006,9.006,0,0,1-3.139-2.334,10.094,10.094,0,0,1-1.932-3.524,14.277,14.277,0,0,1-.655-4.4,17.008,17.008,0,0,1,.489-4.145,15.611,15.611,0,0,1,1.382-3.619,13.991,13.991,0,0,1,2.142-2.992,13.2,13.2,0,0,1,9.7-4.18,11.738,11.738,0,0,1,2.615.271,9.414,9.414,0,0,1,2.134.752,7.978,7.978,0,0,1,1.705,1.146,8.254,8.254,0,0,1,1.312,1.468l-1.994,2.31a2.492,2.492,0,0,1-.489.436,1.264,1.264,0,0,1-.735.193,1.063,1.063,0,0,1-.541-.139,3.839,3.839,0,0,1-.5-.341l-.568-.446a3.885,3.885,0,0,0-.753-.446,5.585,5.585,0,0,0-1.04-.341,6.435,6.435,0,0,0-1.426-.139,6.739,6.739,0,0,0-3,.682,7.122,7.122,0,0,0-2.412,1.95,9.413,9.413,0,0,0-1.6,3.078,13.316,13.316,0,0,0-.577,4.049,9.841,9.841,0,0,0,.394,2.9,6.708,6.708,0,0,0,1.076,2.16,4.534,4.534,0,0,0,3.671,1.81" transform="translate(36.792 7.904)" fill="#30b295"/>
    <path id="Path_79" data-name="Path 79" d="M168.631,53.735h-2.9a2.38,2.38,0,0,1-.848-.131,1.351,1.351,0,0,1-.543-.359,1.274,1.274,0,0,1-.279-.543,2.827,2.827,0,0,1-.08-.682V50.727a9.3,9.3,0,0,1-2.483,2.414,5.456,5.456,0,0,1-3.007.875,4.7,4.7,0,0,1-1.889-.394,4.494,4.494,0,0,1-1.61-1.189A5.913,5.913,0,0,1,153.87,50.4a9.079,9.079,0,0,1-.42-2.912,12.309,12.309,0,0,1,.9-4.679,11.965,11.965,0,0,1,2.52-3.873,12.1,12.1,0,0,1,3.839-2.641,11.957,11.957,0,0,1,4.879-.98,20.09,20.09,0,0,1,2.623.175,12.933,12.933,0,0,1,2.623.63Zm-7.975-4a1.838,1.838,0,0,0,1.155-.446,5.018,5.018,0,0,0,1.057-1.216,10.691,10.691,0,0,0,.919-1.8,16.866,16.866,0,0,0,.716-2.2l.63-5.02h-.314a4.981,4.981,0,0,0-2.423.6,5.934,5.934,0,0,0-1.88,1.618,7.619,7.619,0,0,0-1.216,2.378,9.564,9.564,0,0,0-.428,2.894,6.827,6.827,0,0,0,.139,1.487,3.227,3.227,0,0,0,.376.988,1.526,1.526,0,0,0,.559.551,1.467,1.467,0,0,0,.709.175" transform="translate(41.08 9.456)" fill="#30b295"/>
    <path id="Path_80" data-name="Path 80" d="M175.925,37.26,173.756,55.4H168.4l2.169-18.137Zm1.014-4.967a2.7,2.7,0,0,1-.28,1.216,3.442,3.442,0,0,1-.734,1,3.532,3.532,0,0,1-1.041.682,2.972,2.972,0,0,1-1.2.254,2.793,2.793,0,0,1-1.173-.254,3.322,3.322,0,0,1-.989-.682,3.4,3.4,0,0,1-.69-1,2.867,2.867,0,0,1-.262-1.216,2.928,2.928,0,0,1,.262-1.225,3.343,3.343,0,0,1,.707-1.014,3.5,3.5,0,0,1,1.005-.691,2.821,2.821,0,0,1,1.173-.254,3.058,3.058,0,0,1,1.207.246,3.312,3.312,0,0,1,1.023.681,3.474,3.474,0,0,1,.716,1.015,2.873,2.873,0,0,1,.271,1.241" transform="translate(45.084 7.793)" fill="#30b295"/>
    <path id="Path_81" data-name="Path 81" d="M175.578,53.7l2.2-18.137h2.8a1.985,1.985,0,0,1,1.311.394,1.582,1.582,0,0,1,.474,1.285V39.3a9.925,9.925,0,0,1,2.272-2.851,3.98,3.98,0,0,1,2.535-1,3.419,3.419,0,0,1,1.453.332l-.979,5.02a4.276,4.276,0,0,0-1.7-.385,3.083,3.083,0,0,0-2.388,1.216,9.5,9.5,0,0,0-1.687,3.908l-.98,8.15Z" transform="translate(47.004 9.493)" fill="#30b295"/>
    <path id="Path_82" data-name="Path 82" d="M192.525,54.015a7.846,7.846,0,0,1-2.842-.507,6.5,6.5,0,0,1-2.292-1.478,6.824,6.824,0,0,1-1.521-2.4,9.078,9.078,0,0,1-.55-3.28,11.979,11.979,0,0,1,.8-4.433,11.136,11.136,0,0,1,2.142-3.49,9.761,9.761,0,0,1,3.121-2.291,8.788,8.788,0,0,1,3.733-.821,7.812,7.812,0,0,1,2.835.507,6.505,6.505,0,0,1,2.282,1.478,6.87,6.87,0,0,1,1.529,2.395,8.919,8.919,0,0,1,.56,3.281,11.9,11.9,0,0,1-.795,4.4,11.267,11.267,0,0,1-2.144,3.5,9.823,9.823,0,0,1-3.12,2.31,8.727,8.727,0,0,1-3.735.83m.489-4.022a2.6,2.6,0,0,0,1.626-.551,4.485,4.485,0,0,0,1.216-1.5,8.758,8.758,0,0,0,.77-2.222,12.933,12.933,0,0,0,.271-2.7,5.55,5.55,0,0,0-.534-2.824,1.9,1.9,0,0,0-1.739-.849,2.6,2.6,0,0,0-1.628.553,4.487,4.487,0,0,0-1.216,1.495,8.593,8.593,0,0,0-.768,2.221,12.921,12.921,0,0,0-.271,2.712,5.575,5.575,0,0,0,.532,2.807,1.888,1.888,0,0,0,1.741.866" transform="translate(49.612 9.456)" fill="#30b295"/>
    <path id="Path_83" data-name="Path 83" d="M216.931,29.552a9.083,9.083,0,0,1,3.051.48,6.539,6.539,0,0,1,2.292,1.348,5.859,5.859,0,0,1,1.434,2.055,6.7,6.7,0,0,1,.5,2.605,8.527,8.527,0,0,1-.464,2.878,10.65,10.65,0,0,1-1.268,2.475,15.763,15.763,0,0,1-1.9,2.257q-1.092,1.084-2.352,2.239l-5.772,5.264a17.583,17.583,0,0,1,1.923-.437,10.665,10.665,0,0,1,1.749-.157H221.2a1.68,1.68,0,0,1,1.207.4,1.409,1.409,0,0,1,.42,1.067c0,.024,0,.061-.008.113l-.046.385c-.023.2-.06.522-.113.953s-.132,1.032-.236,1.8h-17.8l.21-1.678a3.157,3.157,0,0,1,.332-1.042,3.343,3.343,0,0,1,.821-1.04l8.326-7.45q1.223-1.1,2.08-2.047a11.7,11.7,0,0,0,1.391-1.836,6.992,6.992,0,0,0,.768-1.775,7.139,7.139,0,0,0,.237-1.862,2.838,2.838,0,0,0-.682-2.012,2.657,2.657,0,0,0-2.046-.734,3.689,3.689,0,0,0-1.18.184,3.806,3.806,0,0,0-1.007.506,4.017,4.017,0,0,0-.8.762,4.38,4.38,0,0,0-.578.944,2.613,2.613,0,0,1-.83,1.084,2.064,2.064,0,0,1-1.2.332,3.734,3.734,0,0,1-.737-.07l-2.693-.473a11.019,11.019,0,0,1,1.487-3.3,9.511,9.511,0,0,1,2.257-2.353,9.241,9.241,0,0,1,2.859-1.407,11.547,11.547,0,0,1,3.3-.464" transform="translate(54.778 7.912)" fill="#30b295"/>
    <path id="Path_84" data-name="Path 84" d="M232.426,29.551a7.82,7.82,0,0,1,3.219.648,6.571,6.571,0,0,1,2.483,1.941,9.382,9.382,0,0,1,1.6,3.244,16.331,16.331,0,0,1,.568,4.54,24.787,24.787,0,0,1-.857,6.908,14.631,14.631,0,0,1-2.353,4.879,9.564,9.564,0,0,1-3.523,2.894,10.105,10.105,0,0,1-4.356.953,7.822,7.822,0,0,1-3.217-.647,6.517,6.517,0,0,1-2.483-1.951,9.427,9.427,0,0,1-1.6-3.244,16.229,16.229,0,0,1-.568-4.53,24.829,24.829,0,0,1,.857-6.908,14.618,14.618,0,0,1,2.352-4.879,9.6,9.6,0,0,1,3.517-2.9,10.1,10.1,0,0,1,4.362-.953m-2.518,21.81a3.177,3.177,0,0,0,1.978-.7,5.559,5.559,0,0,0,1.564-2.107,14.159,14.159,0,0,0,1.023-3.542,29.855,29.855,0,0,0,.368-5,14.375,14.375,0,0,0-.271-3.06,6.457,6.457,0,0,0-.709-1.923,2.622,2.622,0,0,0-1-1.007,2.457,2.457,0,0,0-1.137-.288,3.161,3.161,0,0,0-1.985.7,5.583,5.583,0,0,0-1.555,2.116,14.248,14.248,0,0,0-1.024,3.55,29.762,29.762,0,0,0-.366,4.985,14.324,14.324,0,0,0,.271,3.069,6.257,6.257,0,0,0,.707,1.924,2.618,2.618,0,0,0,1,1,2.442,2.442,0,0,0,1.136.289" transform="translate(59.255 7.911)" fill="#30b295"/>
    <path id="Path_85" data-name="Path 85" d="M248.937,29.552a9.083,9.083,0,0,1,3.051.48,6.538,6.538,0,0,1,2.292,1.348,5.859,5.859,0,0,1,1.434,2.055,6.7,6.7,0,0,1,.5,2.605,8.527,8.527,0,0,1-.464,2.878,10.651,10.651,0,0,1-1.268,2.475,15.762,15.762,0,0,1-1.9,2.257q-1.091,1.084-2.352,2.239l-5.772,5.264a17.584,17.584,0,0,1,1.923-.437,10.665,10.665,0,0,1,1.749-.157H253.2a1.68,1.68,0,0,1,1.207.4,1.409,1.409,0,0,1,.42,1.067c0,.024,0,.061-.008.113l-.046.385c-.023.2-.06.522-.113.953s-.132,1.032-.236,1.8h-17.8l.21-1.678a3.159,3.159,0,0,1,.332-1.042,3.344,3.344,0,0,1,.821-1.04l8.326-7.45q1.223-1.1,2.08-2.047a11.7,11.7,0,0,0,1.391-1.836,6.99,6.99,0,0,0,.768-1.775,7.139,7.139,0,0,0,.237-1.862,2.838,2.838,0,0,0-.682-2.012,2.657,2.657,0,0,0-2.046-.734,3.689,3.689,0,0,0-1.18.184,3.806,3.806,0,0,0-1.007.506,4.017,4.017,0,0,0-.8.762,4.381,4.381,0,0,0-.578.944,2.613,2.613,0,0,1-.83,1.084,2.064,2.064,0,0,1-1.2.332,3.734,3.734,0,0,1-.737-.07l-2.693-.473a11.02,11.02,0,0,1,1.487-3.3,9.512,9.512,0,0,1,2.257-2.353,9.241,9.241,0,0,1,2.859-1.407,11.547,11.547,0,0,1,3.3-.464" transform="translate(63.346 7.912)" fill="#30b295"/>
    <path id="Path_86" data-name="Path 86" d="M271.683,31.913a3.15,3.15,0,0,1-.289.972,2.232,2.232,0,0,1-.63.769,2.936,2.936,0,0,1-1.022.5,5.333,5.333,0,0,1-1.453.175h-6.226l-1.312,4.5a12.252,12.252,0,0,1,1.382-.194q.664-.051,1.278-.052a9.443,9.443,0,0,1,3.28.524,6.565,6.565,0,0,1,2.343,1.444,6,6,0,0,1,1.408,2.159,7.492,7.492,0,0,1,.472,2.676,9.8,9.8,0,0,1-.841,4.083,9.571,9.571,0,0,1-2.309,3.2,10.689,10.689,0,0,1-3.453,2.09,11.983,11.983,0,0,1-4.276.752,10.261,10.261,0,0,1-2.335-.254,9.691,9.691,0,0,1-2.011-.691,9.58,9.58,0,0,1-1.68-1.014,10.324,10.324,0,0,1-1.355-1.223l1.888-2.188a1.806,1.806,0,0,1,.666-.506,1.85,1.85,0,0,1,.734-.158,1.677,1.677,0,0,1,.936.28q.43.28.953.621a6.919,6.919,0,0,0,1.242.62,4.941,4.941,0,0,0,1.8.28,4.861,4.861,0,0,0,2.142-.437,4.228,4.228,0,0,0,1.478-1.154,4.813,4.813,0,0,0,.857-1.662,6.973,6.973,0,0,0,.28-1.976,3.2,3.2,0,0,0-.946-2.439,3.991,3.991,0,0,0-2.851-.9,9.85,9.85,0,0,0-1.59.141,13.259,13.259,0,0,0-1.855.454l-3.112-.873,3.742-12.678h12.942Z" transform="translate(67.638 7.964)" fill="#30b295"/>
  </g>
</svg>
